<?xml version="1.0" encoding="utf-8"?>
<!-- Generator: Adobe Illustrator 23.0.3, SVG Export Plug-In . SVG Version: 6.00 Build 0)  -->
<svg version="1.1" id="Layer_1" xmlns:sketch="http://www.bohemiancoding.com/sketch/ns"
	 xmlns="http://www.w3.org/2000/svg" xmlns:xlink="http://www.w3.org/1999/xlink" x="0px" y="0px" viewBox="0 0 297.4 337.3"
	 style="enable-background:new 0 0 297.4 337.3;" xml:space="preserve">
<style type="text/css">
	.st0{fill-rule:evenodd;clip-rule:evenodd;fill:#1572B6;}
	.st1{fill-rule:evenodd;clip-rule:evenodd;fill:#33A9DC;}
	.st2{fill-rule:evenodd;clip-rule:evenodd;fill:#FFFFFF;}
	.st3{fill-rule:evenodd;clip-rule:evenodd;fill:#EBEBEB;}
</style>
<title>Slice 1</title>
<description>Created with Sketch (http://www.bohemiancoding.com/sketch)</description>
<path class="st0" d="M27.1,303.6L0,0h297.4l-27.1,303.6l-121.8,33.8L27.1,303.6z"/>
<path class="st1" d="M148.7,311.5l98.4-27.3l23.2-259.4H148.7V311.5z"/>
<g id="Group" transform="translate(55.000000, 142.000000)">
	<path class="st2" d="M93.7-7.2H143l3.4-38.1H93.7v-37.2h0.1h93.2l-0.9,10l-9.2,102.6H93.7V-7.2z"/>
	<path class="st3" d="M93.9,89.5l-0.2,0L52.3,78.4l-2.7-29.7H29.5H12.3l5.2,58.5l76.3,21.2l0.2,0V89.5z"/>
	<path class="st2" d="M139.8,28.5l-4.5,49.9L93.8,89.6v38.7l76.3-21.2l0.6-6.3l6.5-72.4H139.8z"/>
	<path class="st3" d="M93.9-82.5v23.1v14v0.1H4H3.9l-0.7-8.4L1.5-72.6l-0.9-10H93.9z"/>
	<path class="st3" d="M93.7-7.2V16v14v0.1H52.9h-0.1L52,21.7L50.3,2.8l-0.9-10H93.7z"/>
</g>
</svg>
