<?xml version="1.0" encoding="utf-8"?>
<!-- Generator: Adobe Illustrator 23.0.3, SVG Export Plug-In . SVG Version: 6.00 Build 0)  -->
<svg version="1.1" id="Layer_1" xmlns="http://www.w3.org/2000/svg" xmlns:xlink="http://www.w3.org/1999/xlink" x="0px" y="0px"
	 viewBox="0 0 362.7 411.4" style="enable-background:new 0 0 362.7 411.4;" xml:space="preserve">
<style type="text/css">
	.st0{fill:#E44D26;}
	.st1{fill:#F16529;}
	.st2{fill:#EBEBEB;}
	.st3{fill:#FFFFFF;}
</style>
<title>HTML5 Logo</title>
<polygon class="st0" points="33,370.3 0,0 362.7,0 329.7,370.2 181.1,411.4 "/>
<polygon class="st1" points="181.4,379.9 301.4,346.6 329.6,30.3 181.4,30.3 "/>
<polygon class="st2" points="181.4,167.6 121.3,167.6 117.1,121.1 181.4,121.1 181.4,75.7 181.2,75.7 67.5,75.7 68.6,87.9 79.7,213 
	181.4,213 "/>
<polygon class="st2" points="181.4,285.5 181.2,285.6 130.6,271.9 127.4,235.7 102.8,235.7 81.8,235.7 88.1,307 181.2,332.8 
	181.4,332.8 "/>
<polygon class="st3" points="181.2,167.6 181.2,213 237.1,213 231.9,271.9 181.2,285.6 181.2,332.8 274.3,307 275,299.3 
	285.7,179.8 286.8,167.6 274.5,167.6 "/>
<polygon class="st3" points="181.2,75.7 181.2,103.9 181.2,121 181.2,121.1 290.8,121.1 290.8,121.1 290.9,121.1 291.8,110.9 
	293.9,87.9 295,75.7 "/>
</svg>
